<!-- Generator: Adobe Illustrator 18.0.0, SVG Export Plug-In  -->
<svg version="1.1"
	 xmlns="http://www.w3.org/2000/svg" xmlns:xlink="http://www.w3.org/1999/xlink" xmlns:a="http://ns.adobe.com/AdobeSVGViewerExtensions/3.0/"
	 x="0px" y="0px" width="91px" height="149.8px" viewBox="0 0 91 149.8" enable-background="new 0 0 91 149.8" xml:space="preserve"
	>
<defs>
</defs>
<path fill="#B3B3B3" d="M91,67.9c0-4.2-1.7-8.2-4.6-11.2l-51.2-52c-6.3-6.4-16.6-6.4-22.8,0l-7.8,7.9c-2.9,2.9-4.5,6.9-4.6,11
	L0,31.5c-0.1,5.1,2.3,9.9,6.3,12.9l24.8,19c7.6,5.9,8.4,17.1,1.7,23.9L4.7,115.8c-3,3-4.6,7.1-4.6,11.3c0,4.5,2,8.9,5.3,11.9
	l7.6,6.8c6.4,5.7,16,5.4,22-0.7l51.4-51.9c3-3,4.6-7.1,4.6-11.3L91,67.9z M81.3,87.9l-50.7,52.1c-4.2,4.3-11.1,4.5-15.6,0.5
	l-5.4-4.8c-2.4-2.1-3.8-5.2-3.8-8.4v0c0-3,1.2-5.9,3.3-8l34.1-35.4c4.8-4.9,4.2-12.8-1.2-17L10.9,39.2C8,37,6.4,33.7,6.4,30.1
	l0.1-5.5c0-2.9,1.2-5.7,3.2-7.8l5.5-5.6c4.4-4.5,11.7-4.6,16.2,0L81.3,62c2.1,2.1,3.2,5,3.3,7.9l0,9.9
	C84.5,82.9,83.4,85.7,81.3,87.9z"/>
</svg>
