<!-- Generator: Adobe Illustrator 18.0.0, SVG Export Plug-In  -->
<svg version="1.1"
	 xmlns="http://www.w3.org/2000/svg" xmlns:xlink="http://www.w3.org/1999/xlink" xmlns:a="http://ns.adobe.com/AdobeSVGViewerExtensions/3.0/"
	 x="0px" y="0px" width="152.7px" height="241px" viewBox="0 0 152.7 241" enable-background="new 0 0 152.7 241"
	 xml:space="preserve">
<defs>
</defs>
<path fill="#754C24" d="M147.1,107L46.3,5.6c-7.4-7.5-19.5-7.5-27-0.1L5.7,18.9c-7.6,7.5-7.6,19.7-0.1,27.2l61.2,60.8
	c7.5,7.5,7.5,19.7,0,27.2L5.7,194.8c-7.6,7.5-7.5,19.8,0.1,27.2l13.6,13.4c7.5,7.4,19.6,7.3,27-0.1L147.1,134
	C154.6,126.5,154.6,114.4,147.1,107z M117.5,130.9l-85.2,82.3c-1,1-2.7,1-3.7,0l-1.9-1.8c-1-1-1-2.7,0-3.7l76.5-76.2
	c7.8-8.3,6.7-16,0-23.7L26.7,31.7c-1-1-1-2.7,0-3.7l1.9-1.8c1-1,2.7-1,3.7,0l81.7,78.5C122.8,112.6,126.1,120.5,117.5,130.9z"/>
</svg>
