<!-- Generator: Adobe Illustrator 18.0.0, SVG Export Plug-In  -->
<svg version="1.1"
	 xmlns="http://www.w3.org/2000/svg" xmlns:xlink="http://www.w3.org/1999/xlink" xmlns:a="http://ns.adobe.com/AdobeSVGViewerExtensions/3.0/"
	 x="0px" y="0px" width="152.7px" height="241px" viewBox="0 0 152.7 241" enable-background="new 0 0 152.7 241"
	 xml:space="preserve">
<defs>
</defs>
<path fill="#754C24" d="M5.6,134l100.8,101.3c7.4,7.5,19.5,7.5,27,0.1l13.6-13.4c7.6-7.5,7.6-19.7,0.1-27.2l-61.2-60.8
	c-7.5-7.5-7.5-19.7,0-27.2l61.2-60.8c7.6-7.5,7.5-19.8-0.1-27.2L133.4,5.5c-7.5-7.4-19.6-7.3-27,0.1L5.6,107
	C-1.9,114.4-1.9,126.5,5.6,134z M38.7,104.6l81.7-78.5c1-1,2.7-1,3.7,0L126,28c1,1,1,2.7,0,3.7l-76.5,76.1c-6.7,7.7-7.8,15.3,0,23.7
	l76.5,76.2c1,1,1,2.7,0,3.7l-1.9,1.8c-1,1-2.7,1-3.7,0l-85.2-82.3C26.6,120.5,29.9,112.6,38.7,104.6z"/>
</svg>
