<!-- Generator: Adobe Illustrator 18.0.0, SVG Export Plug-In  -->
<svg version="1.1"
	 xmlns="http://www.w3.org/2000/svg" xmlns:xlink="http://www.w3.org/1999/xlink" xmlns:a="http://ns.adobe.com/AdobeSVGViewerExtensions/3.0/"
	 x="0px" y="0px" width="91px" height="149.8px" viewBox="0 0 91 149.8" enable-background="new 0 0 91 149.8" xml:space="preserve"
	>
<defs>
</defs>
<path fill="#B3B3B3" d="M0,81.9c0,4.2,1.7,8.2,4.6,11.2l51.2,52c6.3,6.4,16.6,6.4,22.8,0l7.8-7.9c2.9-2.9,4.5-6.9,4.6-11l0.1-7.8
	c0.1-5.1-2.3-9.9-6.3-12.9L60,86.4c-7.6-5.9-8.4-17.1-1.7-23.9L86.4,34c3-3,4.6-7.1,4.6-11.3c0-4.5-2-8.9-5.3-11.9L78,4.1
	c-6.4-5.7-16-5.4-22,0.7L4.6,56.6c-3,3-4.6,7.1-4.6,11.3L0,81.9z M9.8,61.9L60.4,9.9C64.7,5.6,71.5,5.4,76,9.4l5.4,4.8
	c2.4,2.1,3.8,5.2,3.8,8.4v0c0,3-1.2,5.9-3.3,8L47.8,66.1C43,70.9,43.6,78.9,49,83l31.2,27.5c2.8,2.2,4.5,5.6,4.4,9.2l-0.1,5.5
	c0,2.9-1.2,5.7-3.2,7.8l-5.5,5.6c-4.4,4.5-11.7,4.6-16.2,0L9.8,87.8c-2.1-2.1-3.2-5-3.3-7.9l0-9.9C6.5,67,7.7,64.1,9.8,61.9z"/>
</svg>
